{
	"asset":{
		"generator":"Khronos glTF Blender I/O v4.0.44",
		"version":"2.0"
	},
	"scene":0,
	"scenes":[
		{
			"name":"Scene",
			"nodes":[
				1
			]
		}
	],
	"nodes":[
		{
			"mesh":0,
			"name":"Scan shoe-Freepoly.org",
			"rotation":[
				0,
				0.02008681371808052,
				0,
				0.9997982382774353
			],
			"scale":[
				1.000632405281067,
				1.0006378889083862,
				2.24459171295166
			]
		},
		{
			"children":[
				0
			],
			"name":"Scan shoe",
			"scale":[
				20,
				20,
				10
			]
		}
	],
	"materials":[
		{
			"doubleSided":true,
			"name":"Default_OBJ.013",
			"normalTexture":{
				"index":0
			},
			"pbrMetallicRoughness":{
				"baseColorTexture":{
					"index":1
				},
				"metallicFactor":0,
				"metallicRoughnessTexture":{
					"index":2
				}
			}
		}
	],
	"meshes":[
		{
			"name":"Object_0.002",
			"primitives":[
				{
					"attributes":{
						"POSITION":0,
						"NORMAL":1,
						"TEXCOORD_0":2,
						"TEXCOORD_1":3,
						"TEXCOORD_2":4,
						"TEXCOORD_3":5
					},
					"indices":6,
					"material":0
				}
			]
		}
	],
	"textures":[
		{
			"sampler":0,
			"source":0
		},
		{
			"sampler":0,
			"source":1
		},
		{
			"sampler":0,
			"source":2
		}
	],
	"images":[
		{
			"mimeType":"image/jpeg",
			"name":"Default_OBJ",
			"uri":"Default_OBJ.jpg"
		},
		{
			"mimeType":"image/jpeg",
			"name":"Default_OBJ",
			"uri":"Default_OBJ-1.jpg"
		},
		{
			"mimeType":"image/png",
			"name":"Default_OBJ",
			"uri":"Default_OBJ.png"
		}
	],
	"accessors":[
		{
			"bufferView":0,
			"componentType":5126,
			"count":41322,
			"max":[
				0.046541642397642136,
				0.12899310886859894,
				0.12976467609405518
			],
			"min":[
				-0.06342372298240662,
				-0.000245950446696952,
				-0.15230070054531097
			],
			"type":"VEC3"
		},
		{
			"bufferView":1,
			"componentType":5126,
			"count":41322,
			"type":"VEC3"
		},
		{
			"bufferView":2,
			"componentType":5126,
			"count":41322,
			"type":"VEC2"
		},
		{
			"bufferView":3,
			"componentType":5126,
			"count":41322,
			"type":"VEC2"
		},
		{
			"bufferView":4,
			"componentType":5126,
			"count":41322,
			"type":"VEC2"
		},
		{
			"bufferView":5,
			"componentType":5126,
			"count":41322,
			"type":"VEC2"
		},
		{
			"bufferView":6,
			"componentType":5123,
			"count":204216,
			"type":"SCALAR"
		}
	],
	"bufferViews":[
		{
			"buffer":0,
			"byteLength":495864,
			"byteOffset":0,
			"target":34962
		},
		{
			"buffer":0,
			"byteLength":495864,
			"byteOffset":495864,
			"target":34962
		},
		{
			"buffer":0,
			"byteLength":330576,
			"byteOffset":991728,
			"target":34962
		},
		{
			"buffer":0,
			"byteLength":330576,
			"byteOffset":1322304,
			"target":34962
		},
		{
			"buffer":0,
			"byteLength":330576,
			"byteOffset":1652880,
			"target":34962
		},
		{
			"buffer":0,
			"byteLength":330576,
			"byteOffset":1983456,
			"target":34962
		},
		{
			"buffer":0,
			"byteLength":408432,
			"byteOffset":2314032,
			"target":34963
		}
	],
	"samplers":[
		{
			"magFilter":9729,
			"minFilter":9987
		}
	],
	"buffers":[
		{
			"byteLength":2722464,
			"uri":"3.bin"
		}
	]
}
